HIERARCHY
ROOT Hips
{
	OFFSET 0.000000 0.000000 0.000000
	CHANNELS 6 Xposition Yposition Zposition Xrotation Yrotation Zrotation
	JOINT LeftUpLeg_virtual
	{
		OFFSET 0.000000 0.000000 0.000000
		CHANNELS 3 Xrotation Yrotation Zrotation
		JOINT LeftUpLeg
		{
			OFFSET 13.026900 -6.336304 -1.092800
			CHANNELS 3 Xrotation Yrotation Zrotation
			JOINT LeftLeg
			{
				OFFSET 0.524474 -46.096886 9.782700
				CHANNELS 3 Xrotation Yrotation Zrotation
				JOINT LeftFoot
				{
					OFFSET -0.524474 -53.427422 -12.948200
					CHANNELS 3 Xrotation Yrotation Zrotation
					JOINT LeftToeBase
					{
						OFFSET 0.192200 -14.009700 16.364100
						CHANNELS 3 Xrotation Yrotation Zrotation
						JOINT LeftToe_End
						{
							OFFSET -1.784700 -0.561700 9.474800
							CHANNELS 3 Xrotation Yrotation Zrotation
							End Site
							{
								OFFSET 0 0 0
							}
						}
					}
				}
			}
		}
	}
	JOINT RightUpLeg_virtual
	{
		OFFSET 0.000000 0.000000 0.000000
		CHANNELS 3 Xrotation Yrotation Zrotation
		JOINT RightUpLeg
		{
			OFFSET -12.883000 -6.336304 -1.092800
			CHANNELS 3 Xrotation Yrotation Zrotation
			JOINT RightLeg
			{
				OFFSET -0.524587 -46.096825 9.782800
				CHANNELS 3 Xrotation Yrotation Zrotation
				JOINT RightFoot
				{
					OFFSET 0.524587 -53.427383 -12.948300
					CHANNELS 3 Xrotation Yrotation Zrotation
					JOINT RightToeBase
					{
						OFFSET -0.192200 -14.009700 16.364100
						CHANNELS 3 Xrotation Yrotation Zrotation
						JOINT RightToe_End
						{
							OFFSET 1.784700 -0.561700 9.474800
							CHANNELS 3 Xrotation Yrotation Zrotation
							End Site
							{
								OFFSET 0 0 0
							}
						}
					}
				}
			}
		}
	}
	JOINT Spine_virtual
	{
		OFFSET 0.000000 0.000000 0.000000
		CHANNELS 3 Xrotation Yrotation Zrotation
		JOINT Spine
		{
			OFFSET 0.072000 7.257294 -0.789700
			CHANNELS 3 Xrotation Yrotation Zrotation
			JOINT Spine1
			{
				OFFSET 0.000000 12.508769 -0.658067
				CHANNELS 3 Xrotation Yrotation Zrotation
				JOINT Spine1_split
				{
					OFFSET 0.000000 12.508769 -0.658067
					CHANNELS 3 Xrotation Yrotation Zrotation
					JOINT Spine2
					{
						OFFSET 0.000000 12.508769 -0.658067
						CHANNELS 3 Xrotation Yrotation Zrotation
						JOINT Neck_virtual
						{
							OFFSET 0.000000 0.000000 0.000000
							CHANNELS 3 Xrotation Yrotation Zrotation
							JOINT Neck
							{
								OFFSET 0.000000 14.033295 7.520400
								CHANNELS 3 Xrotation Yrotation Zrotation
								JOINT Head
								{
									OFFSET 0.000000 8.198502 5.703100
									CHANNELS 3 Xrotation Yrotation Zrotation
									JOINT HeadTop_End
									{
										OFFSET 0.000000 17.760803 13.332701
										CHANNELS 3 Xrotation Yrotation Zrotation
										End Site
										{
											OFFSET 0 0 0
										}
									}
								}
							}
						}
						JOINT LeftShoulder_virtual
						{
							OFFSET 0.000000 0.000000 0.000000
							CHANNELS 3 Xrotation Yrotation Zrotation
							JOINT LeftShoulder
							{
								OFFSET 6.292450 5.785301 -0.669000
								CHANNELS 3 Xrotation Yrotation Zrotation
								JOINT LeftShoulder_split
								{
									OFFSET 6.292450 5.785301 -0.669000
									CHANNELS 3 Xrotation Yrotation Zrotation
									JOINT LeftArm
									{
										OFFSET 13.907140 -6.093903 1.965100
										CHANNELS 3 Xrotation Yrotation Zrotation
										JOINT LeftForeArm
										{
											OFFSET 34.140198 0.000000 0.000000
											CHANNELS 3 Xrotation Yrotation Zrotation
											JOINT LeftHand
											{
												OFFSET 40.960209 0.000000 0.000000
												CHANNELS 3 Xrotation Yrotation Zrotation
												End Site
												{
													OFFSET 0 0 0
												}
											}
										}
									}
								}
							}
						}
						JOINT RightShoulder_virtual
						{
							OFFSET 0.000000 0.000000 0.000000
							CHANNELS 3 Xrotation Yrotation Zrotation
							JOINT RightShoulder
							{
								OFFSET -6.292450 5.785301 -0.669000
								CHANNELS 3 Xrotation Yrotation Zrotation
								JOINT RightShoulder_split
								{
									OFFSET -6.292450 5.785301 -0.669000
									CHANNELS 3 Xrotation Yrotation Zrotation
									JOINT RightArm
									{
										OFFSET -13.907140 -6.093903 1.965100
										CHANNELS 3 Xrotation Yrotation Zrotation
										JOINT RightForeArm
										{
											OFFSET -34.140198 0.000000 0.000000
											CHANNELS 3 Xrotation Yrotation Zrotation
											JOINT RightHand
											{
												OFFSET -40.960209 0.000000 0.000000
												CHANNELS 3 Xrotation Yrotation Zrotation
												End Site
												{
													OFFSET 0 0 0
												}
											}
										}
									}
								}
							}
						}
					}
				}
			}
		}
	}
}
MOTION
Frames: 10
Frame Time: 0.03333333
-9.375048 101.816750 -5.595165 0.000000 0.000000 0.000000 22.872640 -65.097304 16.396410 -59.279082 -15.453045 16.086724 42.374056 -6.097868 7.107777 2.486842 3.741445 -15.653026 -3.095380 2.390240 -0.802183 0.000000 0.000000 0.000000 19.108653 -69.058936 15.624495 -51.404560 -1.803736 -16.027917 57.357880 -6.859177 2.590917 12.903695 -0.867528 19.768943 -5.689018 -0.270482 3.406221 0.000000 0.000000 0.000000 25.841075 -67.111144 18.425460 8.964968 8.157281 -2.784414 -0.560362 11.442132 3.140032 0.038740 1.297931 0.230531 0.000000 0.000000 0.000000 10.989721 12.625832 0.568399 -0.239682 10.346386 -5.964830 -12.155041 9.716735 8.200162 0.000000 0.000000 0.000000 4.799021 13.912592 1.103538 5.908041 6.517892 -7.638253 9.519450 6.784902 -1.716344 -61.891042 -31.833828 -45.380528 6.424007 -78.287177 3.170000 0.000000 0.000000 0.000000 6.191101 12.931690 1.718389 -13.843815 4.097206 -1.686453 -4.035629 -1.838240 -9.179641 -78.747717 39.085751 106.695205 -8.014331 47.863657 6.305423 0.000000 0.000000 0.000000 
-9.045600 103.309639 -12.704517 0.000000 0.000000 0.000000 21.280315 -62.665544 13.473831 -61.187990 -14.525893 13.399480 42.390384 -4.128259 6.003360 4.436609 3.464377 -15.287551 -2.724418 2.120982 -1.040911 0.000000 0.000000 0.000000 19.025144 -68.839557 14.317189 -50.425678 -3.188686 -14.075019 55.332974 -5.139280 1.785480 13.640451 1.688517 23.510978 -7.301887 0.037901 2.182993 0.000000 0.000000 0.000000 28.267155 -68.623314 20.010156 8.115261 8.325099 -1.931389 -1.006549 11.555504 3.312155 -0.241074 0.817144 0.305609 0.000000 0.000000 0.000000 11.050200 12.894667 0.601921 0.746148 10.349371 -6.586717 -11.577258 10.570366 7.653849 0.000000 0.000000 0.000000 4.902093 14.024511 1.159828 5.737499 6.458463 -7.639711 9.469258 7.083710 -1.667614 -61.810343 -31.655120 -44.746072 5.729817 -77.461640 2.196306 0.000000 0.000000 0.000000 6.248225 13.192457 1.866323 -13.530075 4.753343 -1.733697 -4.457929 -1.926835 -10.137830 -78.366722 37.978007 105.515283 -7.731112 46.996425 6.046242 0.000000 0.000000 0.000000 
-8.495071 104.740746 -20.922726 0.000000 0.000000 0.000000 20.467456 -63.129820 11.597170 -61.771917 -10.454849 10.543676 42.140631 -1.995810 4.180999 8.299834 1.776845 -15.639183 -2.019211 1.538431 -0.655642 0.000000 0.000000 0.000000 21.680040 -70.014903 14.852462 -47.494058 -5.332654 -9.873047 51.695964 -4.611334 0.983432 11.645276 2.548821 24.735604 -7.917686 0.201275 0.759835 0.000000 0.000000 0.000000 31.870639 -71.667146 22.860790 7.021649 8.776199 -0.681902 -1.195767 11.885612 3.645645 -0.013586 0.759499 0.599879 0.000000 0.000000 0.000000 11.197930 13.369034 0.935787 1.689920 10.340690 -7.856183 -10.085624 11.468425 5.924329 0.000000 0.000000 0.000000 5.206892 14.298701 1.478954 5.606003 6.204160 -8.025871 9.918413 7.127393 -1.762774 -61.436944 -32.182154 -44.643011 7.277333 -77.813961 3.312726 0.000000 0.000000 0.000000 6.426053 13.614755 2.315948 -13.120385 5.811283 -1.583797 -4.899179 -2.005056 -10.328768 -78.010391 38.100185 103.727856 -7.294377 46.462311 5.629802 0.000000 0.000000 0.000000 
-8.159065 105.299644 -29.770176 0.000000 0.000000 0.000000 21.854184 -67.386373 12.306903 -61.135247 -4.879349 8.204816 42.522961 -0.184992 2.172888 12.613526 -0.630553 -16.243952 -1.374074 0.849812 0.239074 0.000000 0.000000 0.000000 27.181506 -73.108508 18.267785 -44.013640 -7.709342 -5.314061 49.085045 -5.522722 0.553693 7.281187 0.978166 22.767017 -7.143267 0.146870 -0.575843 0.000000 0.000000 0.000000 38.419677 -75.609702 28.727106 5.972026 9.376346 0.626126 -1.200655 12.395037 4.092500 0.364796 0.794034 0.915937 0.000000 0.000000 0.000000 11.238545 13.987581 1.504745 2.495695 10.258384 -9.362017 -8.358691 12.378128 3.450905 0.000000 0.000000 0.000000 5.564899 14.711551 1.978272 5.561349 5.903209 -8.710951 10.924089 6.806101 -1.859058 -60.485157 -33.257810 -44.817908 10.443285 -78.803772 5.972435 0.000000 0.000000 0.000000 6.704804 14.168264 2.960570 -12.693025 7.122225 -1.305195 -5.462408 -1.800647 -10.190115 -77.349741 39.059916 101.758665 -6.778294 46.239766 5.105166 0.000000 0.000000 0.000000 
-8.092010 104.411011 -38.574635 0.000000 0.000000 0.000000 27.799162 -74.180806 17.940790 -60.413317 0.561299 6.621987 44.321637 0.804993 0.412801 16.134613 -3.022907 -16.528001 -0.675344 0.282997 1.097349 0.000000 0.000000 0.000000 37.692956 -77.655043 27.442283 -40.718292 -9.698779 -2.483275 49.425984 -7.460387 0.602346 1.221213 -2.412426 17.885322 -6.370960 -0.122402 -1.613724 0.000000 0.000000 0.000000 49.097244 -79.203488 38.928028 5.040529 10.081604 1.712784 -1.159812 13.031303 4.585803 0.652026 0.940249 1.143195 0.000000 0.000000 0.000000 11.090915 14.671089 2.146474 3.166032 9.959986 -10.619424 -7.061198 13.219001 0.912830 0.000000 0.000000 0.000000 5.856799 15.242103 2.518942 5.674099 5.805285 -9.753810 11.679075 5.829172 -1.310969 -58.880916 -34.548815 -44.982748 14.139737 -79.814005 9.205162 0.000000 0.000000 0.000000 6.948752 14.811240 3.625952 -12.407439 8.466366 -0.969016 -5.435582 -1.183785 -9.748825 -76.356153 39.981048 100.017766 -6.302997 46.546301 4.551402 0.000000 0.000000 0.000000 
-8.362178 101.905556 -47.655903 0.000000 0.000000 0.000000 46.533652 -81.094679 36.843663 -60.738386 4.294974 6.301486 47.770944 0.814820 -0.819369 16.920146 -4.297045 -15.983136 0.419765 -0.021222 1.473762 0.000000 0.000000 0.000000 62.743566 -82.515515 52.357140 -38.377043 -10.688985 -2.895170 52.985930 -9.322749 0.924036 -4.949517 -5.813898 11.409359 -6.240976 -0.434013 -2.306804 0.000000 0.000000 0.000000 66.455671 -81.628062 55.870968 4.233207 10.824447 2.458229 -1.186587 13.693481 4.989262 0.810050 1.237319 1.073244 0.000000 0.000000 0.000000 10.858757 15.381704 2.620285 3.828123 9.338373 -11.305669 -6.528211 13.960296 -1.066577 0.000000 0.000000 0.000000 5.988833 15.904609 2.937855 5.958015 6.066768 -11.103049 11.496336 4.527001 0.008876 -56.874627 -35.696618 -44.919917 16.659212 -80.444158 11.407934 0.000000 0.000000 0.000000 7.107575 15.512067 4.114726 -12.338778 9.572864 -0.732356 -4.378711 -0.366720 -9.154424 -75.482231 40.303280 99.022532 -5.955540 47.284341 4.041241 0.000000 0.000000 0.000000 
-8.926080 98.188606 -57.298008 0.000000 0.000000 0.000000 101.916319 -83.869245 92.581787 -61.971249 5.754934 7.158263 52.284097 0.315163 -1.587859 13.766990 -3.660489 -14.080191 1.529695 -0.052453 1.163461 0.000000 0.000000 0.000000 123.807041 -83.464597 114.351109 -37.546769 -10.096553 -7.197584 57.654446 -10.077855 1.071926 -9.265696 -7.973128 5.873190 -5.428954 -0.696610 -2.501988 0.000000 0.000000 0.000000 91.008070 -82.624614 80.216883 3.552904 11.453450 2.785341 -1.304658 14.333089 5.146466 0.733860 1.544248 0.647169 0.000000 0.000000 0.000000 10.633450 16.097836 2.745708 4.406992 8.393870 -11.224736 -6.610888 14.363133 -2.106644 0.000000 0.000000 0.000000 6.020401 16.680172 3.040998 6.397662 6.665419 -12.546099 10.924506 2.807334 1.798998 -55.144144 -36.414955 -44.850178 16.660694 -80.727631 11.365663 0.000000 0.000000 0.000000 7.261016 16.266502 4.220183 -12.482909 10.216674 -0.609929 -2.838616 0.069620 -8.600810 -75.190329 39.617860 98.789534 -5.853312 48.363060 3.654340 0.000000 0.000000 0.000000 
-9.701918 94.066933 -67.547363 0.000000 0.000000 0.000000 141.616528 -80.752480 132.755723 -63.458782 4.644048 9.203660 56.999554 -0.642806 -1.882628 8.269527 -1.563423 -11.046190 1.475120 0.205563 0.315552 0.000000 0.000000 0.000000 155.035964 -78.899914 146.730058 -38.091688 -7.537142 -14.794043 60.117297 -8.973781 0.247143 -9.830854 -8.177262 3.582161 -3.557351 -0.851011 -2.206825 0.000000 0.000000 0.000000 113.007317 -82.119747 102.444949 2.956967 11.992844 2.769114 -1.406672 14.925907 4.976592 0.350311 1.981778 0.248951 0.000000 0.000000 0.000000 10.516530 16.767187 2.451998 4.926327 7.315831 -10.389444 -6.937008 14.197402 -2.068103 0.000000 0.000000 0.000000 6.044824 17.474404 2.743590 6.928856 7.540555 -13.915945 10.256923 0.348183 3.752388 -53.980942 -36.665080 -45.019242 14.389204 -80.954667 9.349800 0.000000 0.000000 0.000000 7.438507 17.034628 3.873324 -12.813830 10.287656 -0.596647 -0.572794 0.149054 -7.672480 -75.895109 38.208331 99.192515 -6.029150 49.495184 3.455893 0.000000 0.000000 0.000000 
-10.710260 90.497513 -78.730423 0.000000 0.000000 0.000000 155.570454 -76.935934 147.253660 -64.414469 1.241941 12.315498 60.255430 -1.896710 -1.744631 3.359988 0.880070 -7.874410 -0.238091 0.689410 -0.464379 0.000000 0.000000 0.000000 162.467224 -74.255508 154.925902 -39.125779 -3.320800 -23.406339 58.162961 -6.058777 -1.515127 -6.349146 -6.293503 5.316700 -1.963906 -0.831835 -1.659855 0.000000 0.000000 0.000000 128.302549 -80.877363 118.461517 2.544180 12.303079 2.482453 -1.385947 15.376076 4.482166 -0.113582 2.277619 0.169182 0.000000 0.000000 0.000000 10.486720 17.282390 1.834126 5.376360 6.322798 -9.028906 -7.159365 13.712051 -1.171960 0.000000 0.000000 0.000000 6.086839 18.138978 2.087872 7.429957 8.527147 -14.908578 9.872071 -2.444624 5.261989 -53.425531 -36.482540 -45.372270 11.180796 -81.251398 6.570435 0.000000 0.000000 0.000000 7.673204 17.692994 3.166615 -13.165864 9.803172 -0.692397 2.139187 -0.234243 -6.189200 -77.739362 36.792651 100.159554 -6.400458 50.020925 3.472734 0.000000 0.000000 0.000000 
-11.849917 88.167702 -90.172729 0.000000 0.000000 0.000000 161.925740 -73.629774 154.209552 -64.200541 -3.020253 16.457816 60.853598 -3.236392 -1.351776 2.472762 2.840449 -5.485229 -2.929600 1.199692 -0.708352 0.000000 0.000000 0.000000 162.726853 -71.437474 155.504160 -39.828025 1.155164 -30.460438 52.062687 -1.900940 -3.261132 -0.713684 -2.629708 9.602729 -1.648766 -0.709448 -1.043352 0.000000 0.000000 0.000000 139.202343 -79.409664 130.527743 2.385800 12.264669 1.986683 -1.236638 15.601004 3.793706 -0.358662 2.373239 0.319654 0.000000 0.000000 0.000000 10.425673 17.508379 1.085844 5.823240 5.748918 -7.475391 -6.993821 13.382085 0.174180 0.000000 0.000000 0.000000 6.176639 18.485250 1.251417 7.810283 9.563540 -15.331973 9.945573 -5.209227 6.074027 -53.333085 -35.905526 -45.796948 8.354770 -81.707272 4.193746 0.000000 0.000000 0.000000 7.888279 18.070193 2.316093 -13.439606 8.824684 -0.869407 4.688805 -0.726114 -4.800119 -80.452026 35.728385 101.563055 -6.899890 49.523543 3.705795 0.000000 0.000000 0.000000 
